<svg width="1301" height="248" viewBox="0 0 1301 248" fill="none" xmlns="http://www.w3.org/2000/svg">
<path d="M113.398 180.375L100.512 145.087H39.0548L25.9704 180.375H3.96495L58.4831 38.0332H82.471L136.593 180.375H113.398ZM69.9814 61.8229L45.597 127.443H93.9694L69.9814 61.8229ZM211.865 160.947V178.591C205.719 181.366 200.366 182.357 194.022 182.357C174.594 182.357 161.113 171.85 161.113 148.655V92.353H137.918V75.3037H161.113V44.1789H181.136V75.3037H212.856V92.353H181.136V144.096C181.136 158.568 188.075 163.722 198.78 163.722C203.538 163.722 207.702 162.929 211.865 160.947ZM255.953 180.375H235.93V75.3037H254.565V92.7495C261.702 80.6564 273.002 73.3213 287.475 73.3213C302.938 73.3213 314.634 81.2512 319.392 95.1285C326.728 81.6477 338.821 73.3213 354.879 73.3213C376.488 73.3213 390.365 87.3969 390.365 112.376V180.375H370.342V118.72C370.342 101.274 362.61 90.9653 347.94 90.9653C334.261 90.9653 323.159 102.464 323.159 120.108V180.375H303.136V118.72C303.136 101.274 295.404 90.9653 280.734 90.9653C266.857 90.9653 255.953 102.464 255.953 120.108V180.375ZM465.117 182.357C435.38 182.357 413.572 158.964 413.572 127.839C413.572 96.7145 435.38 73.3213 465.117 73.3213C494.854 73.3213 516.661 96.7145 516.661 127.839C516.661 158.964 494.854 182.357 465.117 182.357ZM465.117 164.713C482.364 164.713 496.043 150.836 496.043 127.839C496.043 104.843 482.364 91.1636 465.117 91.1636C447.869 91.1636 434.388 104.843 434.388 127.839C434.388 150.836 447.869 164.713 465.117 164.713ZM624.302 149.052C624.302 169.67 608.244 182.357 580.291 182.357C552.536 182.357 536.082 168.678 534.099 146.078H553.329C554.122 159.163 564.629 167.291 580.687 167.291C594.763 167.291 604.081 162.334 604.081 152.422C604.081 143.699 598.728 139.932 585.644 137.355L568.594 134.183C549.166 130.417 538.262 120.504 538.262 104.644C538.262 86.2074 554.321 73.3213 578.705 73.3213C603.882 73.3213 620.932 86.8021 622.716 108.411H603.486C602.296 95.7233 592.979 88.3881 578.903 88.3881C566.215 88.3881 557.691 93.7408 557.691 102.86C557.691 111.385 563.043 115.35 575.731 117.729L593.574 121.099C614.39 124.866 624.302 133.985 624.302 149.052ZM750.442 127.839C750.442 159.559 732.203 182.357 704.052 182.357C689.778 182.357 677.685 175.221 670.151 162.533V218.637H650.128V75.3037H668.764V94.5338C676.297 81.0529 689.183 73.3213 704.052 73.3213C732.005 73.3213 750.442 96.1198 750.442 127.839ZM729.626 127.839C729.626 104.248 717.136 90.9653 699.889 90.9653C683.236 90.9653 670.151 104.248 670.151 127.839C670.151 151.034 683.037 164.515 699.889 164.515C717.136 164.515 729.626 151.431 729.626 127.839ZM794.73 121.099V180.375H774.707V38.0332H794.73V92.1548C801.669 80.8547 812.374 73.3213 826.846 73.3213C848.455 73.3213 862.729 87.1986 862.729 112.376V180.375H842.706V119.116C842.706 101.076 834.776 90.9653 819.907 90.9653C806.228 90.9653 794.73 102.464 794.73 121.099ZM936.502 182.357C906.17 182.357 885.75 160.352 885.75 127.245C885.75 96.1198 906.963 73.3213 935.907 73.3213C967.23 73.3213 988.046 98.697 984.478 132.796H906.17C907.756 154.206 918.461 166.696 936.105 166.696C950.974 166.696 961.283 158.568 964.653 144.889H984.478C979.323 168.282 961.283 182.357 936.502 182.357ZM935.51 88.3881C919.452 88.3881 908.549 99.8865 906.368 119.513H963.265C962.274 100.085 951.767 88.3881 935.51 88.3881ZM1029.75 126.65V180.375H1009.73V75.3037H1028.37V97.5075C1035.7 83.0354 1051.56 73.916 1068.81 73.916V94.732C1046.21 93.5425 1029.75 103.455 1029.75 126.65ZM1131.45 182.357C1101.12 182.357 1080.7 160.352 1080.7 127.245C1080.7 96.1198 1101.91 73.3213 1130.86 73.3213C1162.18 73.3213 1182.99 98.697 1179.43 132.796H1101.12C1102.7 154.206 1113.41 166.696 1131.05 166.696C1145.92 166.696 1156.23 158.568 1159.6 144.889H1179.43C1174.27 168.282 1156.23 182.357 1131.45 182.357ZM1130.46 88.3881C1114.4 88.3881 1103.5 99.8865 1101.32 119.513H1158.21C1157.22 100.085 1146.72 88.3881 1130.46 88.3881Z" fill="white"/>
<path d="M1250.74 107.329C1228.81 107.329 1212.3 90.5012 1212.3 69.6569C1212.3 48.704 1228.81 31.8765 1250.74 31.8765C1272.77 31.8765 1289.28 48.704 1289.28 69.6569C1289.28 90.5012 1272.77 107.329 1250.74 107.329ZM1250.74 101.249C1269.3 101.249 1282.22 87.1357 1282.22 69.6569C1282.22 52.0695 1269.3 37.9561 1250.74 37.9561C1232.28 37.9561 1219.36 52.0695 1219.36 69.6569C1219.36 87.1357 1232.28 101.249 1250.74 101.249ZM1262.14 73.348H1269.63C1268.21 83.0103 1260.51 89.5241 1250.63 89.5241C1239.88 89.5241 1231.63 80.839 1231.63 69.6569C1231.63 58.3662 1239.88 49.7896 1250.63 49.7896C1260.51 49.7896 1268.21 56.3035 1269.63 65.9657H1262.14C1261.16 60.2118 1256.6 56.0863 1250.74 56.0863C1243.79 56.0863 1238.9 61.7317 1238.9 69.6569C1238.9 77.5821 1243.79 83.336 1250.74 83.336C1256.6 83.336 1261.16 79.1019 1262.14 73.348Z" fill="white"/>
</svg>
