<svg width="168" height="32" viewBox="0 0 168 32" fill="none" xmlns="http://www.w3.org/2000/svg">
<path d="M14.6432 23.3333L12.9792 18.7765H5.0432L3.3536 23.3333H0.512L7.552 4.95245H10.6496L17.6384 23.3333H14.6432ZM9.0368 8.02445L5.888 16.4981H12.1344L9.0368 8.02445ZM27.3584 20.8245V23.1029C26.5648 23.4613 25.8736 23.5893 25.0544 23.5893C22.5456 23.5893 20.8048 22.2325 20.8048 19.2373V11.9669H17.8096V9.76525H20.8048V5.74605H23.3904V9.76525H27.4864V11.9669H23.3904V18.6485C23.3904 20.5173 24.2864 21.1829 25.6688 21.1829C26.2832 21.1829 26.8208 21.0805 27.3584 20.8245ZM33.0516 23.3333H30.466V9.76525H32.8724V12.0181C33.794 10.4565 35.2532 9.50925 37.122 9.50925C39.1188 9.50925 40.6292 10.5333 41.2436 12.3253C42.1908 10.5845 43.7524 9.50925 45.826 9.50925C48.6164 9.50925 50.4084 11.3269 50.4084 14.5525V23.3333H47.8228V15.3717C47.8228 13.1189 46.8244 11.7877 44.93 11.7877C43.1636 11.7877 41.73 13.2725 41.73 15.5509V23.3333H39.1444V15.3717C39.1444 13.1189 38.146 11.7877 36.2516 11.7877C34.4596 11.7877 33.0516 13.2725 33.0516 15.5509V23.3333ZM60.0612 23.5893C56.2212 23.5893 53.4052 20.5685 53.4052 16.5493C53.4052 12.5301 56.2212 9.50925 60.0612 9.50925C63.9012 9.50925 66.7172 12.5301 66.7172 16.5493C66.7172 20.5685 63.9012 23.5893 60.0612 23.5893ZM60.0612 21.3109C62.2884 21.3109 64.0548 19.5189 64.0548 16.5493C64.0548 13.5797 62.2884 11.8133 60.0612 11.8133C57.834 11.8133 56.0932 13.5797 56.0932 16.5493C56.0932 19.5189 57.834 21.3109 60.0612 21.3109ZM80.617 19.2885C80.617 21.9509 78.5434 23.5893 74.9338 23.5893C71.3498 23.5893 69.225 21.8229 68.969 18.9045H71.4522C71.5546 20.5941 72.9114 21.6437 74.985 21.6437C76.8026 21.6437 78.0058 21.0037 78.0058 19.7237C78.0058 18.5973 77.3146 18.1109 75.625 17.7781L73.4234 17.3685C70.9146 16.8821 69.5066 15.6021 69.5066 13.5541C69.5066 11.1733 71.5802 9.50925 74.729 9.50925C77.9802 9.50925 80.1818 11.2501 80.4122 14.0405H77.929C77.7754 12.4021 76.5722 11.4549 74.7546 11.4549C73.1162 11.4549 72.0154 12.1461 72.0154 13.3237C72.0154 14.4245 72.7066 14.9365 74.345 15.2437L76.649 15.6789C79.337 16.1653 80.617 17.3429 80.617 19.2885ZM96.9056 16.5493C96.9056 20.6453 94.5504 23.5893 90.9152 23.5893C89.072 23.5893 87.5104 22.6677 86.5376 21.0293V28.2741H83.952V9.76525H86.3584V12.2485C87.3312 10.5076 88.9952 9.50925 90.9152 9.50925C94.5248 9.50925 96.9056 12.4533 96.9056 16.5493ZM94.2176 16.5493C94.2176 13.5029 92.6048 11.7877 90.3776 11.7877C88.2272 11.7877 86.5376 13.5029 86.5376 16.5493C86.5376 19.5445 88.2016 21.2853 90.3776 21.2853C92.6048 21.2853 94.2176 19.5957 94.2176 16.5493ZM102.625 15.6789V23.3333H100.039V4.95245H102.625V11.9413C103.521 10.482 104.903 9.50925 106.772 9.50925C109.562 9.50925 111.405 11.3013 111.405 14.5525V23.3333H108.82V15.4229C108.82 13.0933 107.796 11.7877 105.876 11.7877C104.109 11.7877 102.625 13.2725 102.625 15.6789ZM120.932 23.5893C117.015 23.5893 114.378 20.7477 114.378 16.4725C114.378 12.4533 117.117 9.50925 120.855 9.50925C124.9 9.50925 127.588 12.7861 127.127 17.1893H117.015C117.22 19.9541 118.602 21.5669 120.881 21.5669C122.801 21.5669 124.132 20.5173 124.567 18.7509H127.127C126.461 21.7717 124.132 23.5893 120.932 23.5893ZM120.804 11.4549C118.73 11.4549 117.322 12.9397 117.041 15.4741H124.388C124.26 12.9653 122.903 11.4549 120.804 11.4549ZM132.974 16.3957V23.3333H130.388V9.76525H132.794V12.6325C133.742 10.7637 135.79 9.58605 138.017 9.58605V12.2741C135.098 12.1205 132.974 13.4005 132.974 16.3957ZM146.106 23.5893C142.189 23.5893 139.552 20.7477 139.552 16.4725C139.552 12.4533 142.291 9.50925 146.029 9.50925C150.074 9.50925 152.762 12.7861 152.301 17.1893H142.189C142.394 19.9541 143.776 21.5669 146.055 21.5669C147.975 21.5669 149.306 20.5173 149.741 18.7509H152.301C151.635 21.7717 149.306 23.5893 146.106 23.5893ZM145.978 11.4549C143.904 11.4549 142.496 12.9397 142.215 15.4741H149.562C149.434 12.9653 148.077 11.4549 145.978 11.4549Z" fill="white"/>
<path d="M161.509 13.4594C158.678 13.4594 156.547 11.2865 156.547 8.59481C156.547 5.88914 158.678 3.71618 161.509 3.71618C164.355 3.71618 166.486 5.88914 166.486 8.59481C166.486 11.2865 164.355 13.4594 161.509 13.4594ZM161.509 12.6744C163.907 12.6744 165.575 10.8519 165.575 8.59481C165.575 6.32373 163.907 4.50125 161.509 4.50125C159.126 4.50125 157.458 6.32373 157.458 8.59481C157.458 10.8519 159.126 12.6744 161.509 12.6744ZM162.981 9.07146H163.949C163.767 10.3192 162.771 11.1603 161.495 11.1603C160.108 11.1603 159.042 10.0388 159.042 8.59481C159.042 7.13683 160.108 6.02933 161.495 6.02933C162.771 6.02933 163.767 6.87047 163.949 8.11817H162.981C162.855 7.37516 162.267 6.84243 161.509 6.84243C160.612 6.84243 159.981 7.57142 159.981 8.59481C159.981 9.6182 160.612 10.3612 161.509 10.3612C162.267 10.3612 162.855 9.81447 162.981 9.07146Z" fill="white"/>
</svg>
