<svg width="195" height="78" viewBox="0 0 195 78" fill="none" xmlns="http://www.w3.org/2000/svg">
<g clip-path="url(#clip0_122_1836)">
<g clip-path="url(#clip1_122_1836)">
<path d="M109.542 47.5716H113.692V31.7419H109.542V47.5716ZM109.542 29.2734H113.692V25.5088H109.542V29.2734Z" fill="#B8B8B8"/>
<path d="M116.366 52.7553H120.515V45.7816H120.576C121.46 47.1393 122.895 48.0342 125.091 48.0342C129.119 48.0342 131.865 44.7942 131.865 39.6719C131.865 34.7347 129.211 31.3096 125.061 31.3096C122.925 31.3096 121.46 32.3279 120.454 33.7164H120.362V31.7416H116.366V52.7553ZM124.207 44.5473C121.735 44.5473 120.424 42.6651 120.424 39.7953C120.424 36.9564 121.46 34.7039 124.055 34.7039C126.617 34.7039 127.654 36.8022 127.654 39.7953C127.654 42.7884 126.312 44.5473 124.207 44.5473Z" fill="#B8B8B8"/>
<path d="M140.142 48.0342C144.048 48.0342 146.733 46.1211 146.733 42.9427C146.733 39.2399 143.835 38.4993 141.21 37.9439C138.983 37.4811 136.908 37.3576 136.908 35.9999C136.908 34.8582 137.976 34.2411 139.593 34.2411C141.363 34.2411 142.431 34.8582 142.614 36.5553H146.366C146.062 33.3771 143.773 31.3096 139.655 31.3096C136.084 31.3096 133.278 32.9451 133.278 36.3702C133.278 39.8262 136.024 40.5976 138.831 41.1531C140.966 41.5851 142.949 41.7393 142.949 43.2513C142.949 44.3622 141.912 45.0719 140.082 45.0719C138.22 45.0719 136.939 44.2696 136.665 42.4491H132.82C133.064 45.8124 135.597 48.0342 140.142 48.0342Z" fill="#B8B8B8"/>
<path d="M162.487 47.571V31.7412H158.337V40.875C158.337 42.9732 157.148 44.4543 155.195 44.4543C153.425 44.4543 152.602 43.4361 152.602 41.5847V31.7412H148.483V42.2943C148.483 45.7503 150.435 48.003 153.914 48.003C156.111 48.003 157.331 47.1698 158.399 45.7196H158.49V47.571H162.487Z" fill="#B8B8B8"/>
<path d="M165.171 47.5713H169.321V38.3759C169.321 36.2776 170.45 34.9199 172.128 34.9199C173.654 34.9199 174.538 35.8456 174.538 37.6353V47.5713H178.688V38.3759C178.688 36.2776 179.756 34.9199 181.495 34.9199C183.021 34.9199 183.905 35.8456 183.905 37.6353V47.5713H188.055V36.9256C188.055 33.4696 186.193 31.3096 182.898 31.3096C180.915 31.3096 179.267 32.3587 178.199 34.0867H178.139C177.376 32.4204 175.789 31.3096 173.806 31.3096C171.64 31.3096 170.114 32.4204 169.26 33.8707H169.168V31.7416H165.171V47.5713Z" fill="#B8B8B8"/>
<path d="M1.39062 47.5716H5.54014V25.5088H1.39062V47.5716Z" fill="#B8B8B8"/>
<path d="M15.6863 48.0342C20.5376 48.0342 23.8632 44.3931 23.8632 39.6719C23.8632 34.9507 20.5376 31.3096 15.6863 31.3096C10.835 31.3096 7.50928 34.9507 7.50928 39.6719C7.50928 44.3931 10.835 48.0342 15.6863 48.0342ZM15.6863 44.8251C13.1234 44.8251 11.7198 42.7576 11.7198 39.6719C11.7198 36.5862 13.1234 34.4879 15.6863 34.4879C18.2187 34.4879 19.6527 36.5862 19.6527 39.6719C19.6527 42.7576 18.2187 44.8251 15.6863 44.8251Z" fill="#B8B8B8"/>
<path d="M32.6876 52.9713C35.0064 52.9713 37.0202 52.4159 38.3321 51.1816C39.4916 50.1016 40.1933 48.5896 40.1933 46.3679V31.7416H36.1964V33.4079H36.1353C35.1895 32.0811 33.7555 31.3096 31.8027 31.3096C27.8363 31.3096 25.0293 34.3336 25.0293 39.0547C25.0293 43.8376 28.4465 46.6147 31.9248 46.6147C33.908 46.6147 35.098 45.8124 36.0133 44.7633H36.1048V46.4913C36.1048 48.6513 34.9759 49.7931 32.6265 49.7931C30.7043 49.7931 29.8195 49.0216 29.4839 48.0342H25.3649C25.792 51.1199 28.416 52.9713 32.6876 52.9713ZM32.6265 43.2513C30.4908 43.2513 29.0873 41.6776 29.0873 38.993C29.0873 36.3393 30.4908 34.6731 32.596 34.6731C35.098 34.6731 36.3184 36.6479 36.3184 38.9622C36.3184 41.3073 35.2505 43.2513 32.6265 43.2513Z" fill="#B8B8B8"/>
<path d="M50.2796 48.0342C55.1308 48.0342 58.4566 44.3931 58.4566 39.6719C58.4566 34.9507 55.1308 31.3096 50.2796 31.3096C45.4283 31.3096 42.1025 34.9507 42.1025 39.6719C42.1025 44.3931 45.4283 48.0342 50.2796 48.0342ZM50.2796 44.8251C47.7166 44.8251 46.3131 42.7576 46.3131 39.6719C46.3131 36.5862 47.7166 34.4879 50.2796 34.4879C52.812 34.4879 54.2461 36.5862 54.2461 39.6719C54.2461 42.7576 52.812 44.8251 50.2796 44.8251Z" fill="#B8B8B8"/>
<path d="M189.562 29.1431C189.562 28.4331 190.132 27.8574 190.834 27.8574H193.377C194.079 27.8574 194.648 28.4331 194.648 29.1431C194.648 29.8532 194.079 30.4289 193.377 30.4289H190.834C190.132 30.4289 189.562 29.8532 189.562 29.1431Z" fill="#B8B8B8"/>
<path fill-rule="evenodd" clip-rule="evenodd" d="M83.6214 21C93.4507 21 101.42 29.0589 101.42 39C101.42 48.9411 93.4507 57 83.6214 57C73.7917 57 65.8232 48.9411 65.8232 39C65.8232 29.0589 73.7917 21 83.6214 21ZM82.9781 22.3469C80.9476 22.6359 79.0142 24.286 77.5133 27.0457C77.078 27.8461 76.6852 28.7305 76.3429 29.6854C78.3837 29.1668 80.6254 28.861 82.9781 28.8137V22.3469ZM74.8386 30.1177C75.2644 28.7666 75.7851 27.5236 76.386 26.4186C77.13 25.0505 78.0129 23.8692 79.0078 22.9618C73.5981 24.5507 69.3341 28.8631 67.763 34.3341C68.6602 33.328 69.8283 32.435 71.181 31.6826C72.2737 31.0749 73.5027 30.5482 74.8386 30.1177ZM74.4112 31.639C73.8984 33.7029 73.5961 35.9701 73.5492 38.3494H67.155C67.4407 36.2959 69.0723 34.3405 71.8011 32.8228C72.5926 32.3825 73.467 31.9852 74.4112 31.639ZM74.8361 38.3494C74.8893 35.7528 75.2589 33.3151 75.8705 31.1612C78.0002 30.5427 80.4106 30.1688 82.9781 30.1151V32.9257C82.0203 35.4056 80.0668 37.3811 77.6146 38.3494H74.8361ZM73.5492 39.6506H67.155C67.4407 41.7041 69.0723 43.6594 71.8011 45.1772C72.5926 45.6175 73.467 46.0148 74.4112 46.361C73.8984 44.2971 73.5961 42.0299 73.5492 39.6506ZM75.8705 46.8388C75.2589 44.6849 74.8893 42.2472 74.8361 39.6506H77.6146C80.0668 40.6189 82.0203 42.5944 82.9781 45.0743V47.8849C80.4106 47.8312 78.0002 47.4573 75.8705 46.8388ZM74.8386 47.8823C73.5027 47.4518 72.2737 46.9251 71.181 46.3174C69.8283 45.565 68.6602 44.672 67.763 43.6659C69.3341 49.1369 73.5981 53.4493 79.0078 55.0382C78.0129 54.1308 77.13 52.9495 76.386 51.5814C75.7851 50.4764 75.2644 49.2334 74.8386 47.8823ZM82.9781 55.6531C80.9476 55.3641 79.0142 53.714 77.5133 50.9543C77.078 50.1539 76.6852 49.2694 76.3429 48.3146C78.3837 48.8332 80.6254 49.139 82.9781 49.1863V55.6531ZM88.235 55.0382C89.2298 54.1308 90.1127 52.9495 90.8566 51.5814C91.4573 50.4764 91.9788 49.2334 92.4042 47.8823C93.7399 47.4518 94.9689 46.9251 96.0617 46.3174C97.4144 45.565 98.5828 44.672 99.4798 43.6659C97.9083 49.1369 93.6447 53.4493 88.235 55.0382ZM90.9002 48.3146C90.5576 49.2694 90.1643 50.1539 89.7291 50.9543C88.2286 53.714 86.2951 55.3641 84.2646 55.6531V49.1863C86.6173 49.139 88.859 48.8332 90.9002 48.3146ZM92.8313 46.361C93.7755 46.0148 94.6503 45.6175 95.4414 45.1772C98.1708 43.6595 99.802 41.7041 100.088 39.6506H93.6937C93.6465 42.0299 93.3439 44.2971 92.8313 46.361ZM92.4068 39.6506C92.3535 42.2472 91.9841 44.6849 91.3719 46.8388C89.2425 47.4573 86.8321 47.8312 84.2646 47.8849V45.0763C85.2222 42.5956 87.1761 40.6192 89.6289 39.6506H92.4068ZM93.6937 38.3494H100.088C99.802 36.2959 98.1708 34.3405 95.4414 32.8228C94.6503 32.3825 93.7755 31.9852 92.8313 31.639C93.3439 33.7029 93.6465 35.9701 93.6937 38.3494ZM91.3719 31.1612C91.9841 33.3151 92.3535 35.7528 92.4068 38.3494H89.629C87.1761 37.3808 85.2222 35.4044 84.2646 32.9236V30.1151C86.8321 30.1688 89.2425 30.5427 91.3719 31.1612ZM92.4042 30.1177C93.7399 30.5482 94.9689 31.0749 96.0617 31.6826C97.4144 32.435 98.5828 33.328 99.4798 34.3341C97.9083 28.8631 93.6447 24.5507 88.235 22.9618C89.2298 23.8692 90.1127 25.0505 90.8566 26.4186C91.4573 27.5236 91.9788 28.7666 92.4042 30.1177ZM84.2646 22.3469C86.2951 22.6359 88.2286 24.286 89.7291 27.0457C90.1643 27.8462 90.5576 28.7305 90.9002 29.6854C88.859 29.1668 86.6173 28.861 84.2646 28.8137V22.3469Z" fill="#B8B8B8"/>
</g>
</g>
<defs>
<clipPath id="clip0_122_1836">
<rect width="193.66" height="77.464" fill="white" transform="translate(0.827148)"/>
</clipPath>
<clipPath id="clip1_122_1836">
<rect width="194" height="36" fill="white" transform="translate(0.657227 21)"/>
</clipPath>
</defs>
</svg>
