<svg width="195" height="78" viewBox="0 0 195 78" fill="none" xmlns="http://www.w3.org/2000/svg">
<g clip-path="url(#clip0_122_1834)">
<path d="M19.1116 56C28.7517 56 36.5661 48.3891 36.5661 39V27.1C36.5661 25.7474 36.0144 24.4502 35.0324 23.4938C34.0504 22.5373 32.7185 22 31.3298 22H19.9843V29.4579C19.9843 31.1596 20.0908 32.9225 21.0071 34.3709C21.6632 35.4089 22.5408 36.2974 23.5804 36.976C24.62 37.6546 25.7973 38.1074 27.0325 38.3039L27.3667 38.3566C27.5045 38.4024 27.6241 38.4891 27.7088 38.6045C27.7935 38.7199 27.8391 38.8582 27.8391 39C27.8391 39.1418 27.7935 39.2801 27.7088 39.3955C27.6241 39.5109 27.5045 39.5976 27.3667 39.6435L27.0325 39.6962C25.2278 39.9833 23.5613 40.8152 22.2683 42.0746C20.9753 43.3339 20.1211 44.9569 19.8263 46.7146L19.7722 47.0402C19.7251 47.1744 19.6361 47.2909 19.5177 47.3734C19.3992 47.4559 19.2572 47.5002 19.1116 47.5002C18.966 47.5002 18.824 47.4559 18.7055 47.3734C18.587 47.2909 18.498 47.1744 18.4509 47.0402L18.3968 46.7146C18.1951 45.5116 17.7301 44.365 17.0334 43.3525C16.3366 42.3399 15.4245 41.4852 14.3587 40.8462C12.8716 39.9537 11.0615 39.85 9.31434 39.85H1.67798C2.13441 48.8439 9.76467 56 19.1116 56Z" fill="#B8B8B8"/>
<path d="M1.65698 38.15H9.31429C11.0615 38.15 12.8715 38.0463 14.3587 37.1538C15.5211 36.4562 16.4997 35.5031 17.216 34.3709C18.1323 32.9225 18.2388 31.1596 18.2388 29.4579V22H6.89335C5.50458 22 4.17269 22.5373 3.19068 23.4938C2.20867 24.4502 1.65698 25.7474 1.65698 27.1L1.65698 38.15ZM42.1995 23.7C42.1995 24.1509 42.0156 24.5833 41.6883 24.9021C41.361 25.2209 40.917 25.4 40.4541 25.4C39.9912 25.4 39.5472 25.2209 39.2199 24.9021C38.8925 24.5833 38.7086 24.1509 38.7086 23.7C38.7086 23.2491 38.8925 22.8167 39.2199 22.4979C39.5472 22.1791 39.9912 22 40.4541 22C40.917 22 41.361 22.1791 41.6883 22.4979C42.0156 22.8167 42.1995 23.2491 42.1995 23.7ZM186.423 32.2884C191.302 32.2884 193.657 35.6076 193.657 39.4522V46.6729H188.551V40.309C188.551 38.5665 187.898 37.1283 186.026 37.1283C184.154 37.1283 183.53 38.5665 183.53 40.309V46.6721H178.424V40.309C178.424 38.5665 177.8 37.1283 175.927 37.1283C174.055 37.1283 173.402 38.5665 173.402 40.309V46.6721H168.296V39.4513C168.296 35.6068 170.65 32.2875 175.53 32.2875C178.197 32.2875 180.125 33.3109 181.005 34.9982C181.941 33.3109 183.984 32.2867 186.423 32.2867V32.2884ZM159.121 42.247C160.766 42.247 161.475 40.7807 161.475 39.0374V32.8409H166.581V39.646C166.581 43.7124 164.141 47.0877 159.121 47.0877C154.099 47.0877 151.66 43.7132 151.66 39.646V32.8409H156.766V39.0374C156.766 40.7799 157.475 42.247 159.121 42.247ZM144.152 47.1149C140.946 47.1149 138.875 46.0363 137.655 43.9342L141.343 41.9146C141.854 42.7995 142.619 43.2423 143.896 43.2423C144.946 43.2423 145.427 42.8828 145.427 42.4399C145.427 40.7527 137.939 42.468 137.939 37.1019C137.939 34.5009 140.208 32.3989 144.066 32.3989C147.442 32.3989 149.286 34.0028 150.109 35.5524L146.421 37.5992C146.109 36.7696 145.144 36.2715 144.179 36.2715C143.442 36.2715 143.045 36.5758 143.045 36.9906C143.045 38.7059 150.534 37.1291 150.534 42.3294C150.534 45.2339 147.612 47.1149 144.152 47.1149ZM126.311 53.0352H121.205V39.7293C121.205 35.4963 124.467 32.4261 129.006 32.4261C133.432 32.4261 136.808 35.7181 136.808 39.7293C136.808 44.1552 133.8 47.0877 129.29 47.0877C128.24 47.0877 127.191 46.7834 126.311 46.3125V53.0352ZM129.006 42.4127C130.623 42.4127 131.701 41.1955 131.701 39.7565C131.701 38.2911 130.623 37.1011 129.006 37.1011C127.389 37.1011 126.311 38.2911 126.311 39.7573C126.311 41.1955 127.389 42.4127 129.006 42.4127ZM116.09 31.3755C114.416 31.3755 113.027 30.0197 113.027 28.3877C113.027 26.7557 114.416 25.4 116.09 25.4C117.764 25.4 119.154 26.7557 119.154 28.3877C119.154 30.0197 117.764 31.3755 116.09 31.3755ZM113.537 32.8409H118.643V46.6729H113.537V32.8409ZM103.74 47.0877C99.3143 47.0877 95.9386 43.7685 95.9386 39.7293C95.9386 35.7181 99.3143 32.3989 103.74 32.3989C108.165 32.3989 111.541 35.7181 111.541 39.7293C111.541 43.7685 108.165 47.0877 103.74 47.0877ZM103.74 42.4127C105.357 42.4127 106.435 41.1955 106.435 39.7565C106.435 38.2911 105.357 37.0739 103.74 37.0739C102.123 37.0739 101.045 38.2911 101.045 39.7565C101.045 41.1955 102.123 42.4127 103.74 42.4127ZM86.2967 53.45C82.7796 53.45 80.226 51.9285 78.9213 49.217L83.1479 47.0044C83.6017 47.9454 84.4526 48.9135 86.2112 48.9135C88.0561 48.9135 89.2753 47.7788 89.4176 45.7872C88.7368 46.3686 87.6581 46.8106 86.0419 46.8106C82.098 46.8106 78.9204 43.8509 78.9204 39.7012C78.9204 35.691 82.297 32.4261 86.7226 32.4261C91.2616 32.4261 94.5239 35.4971 94.5239 39.7293V45.2067C94.5239 50.186 90.9771 53.45 86.2967 53.45ZM86.6371 42.1365C88.1687 42.1365 89.332 41.1122 89.332 39.5907C89.332 38.0973 88.1696 37.1011 86.6371 37.1011C85.1333 37.1011 83.9421 38.0973 83.9421 39.5916C83.9421 41.1131 85.1333 42.1356 86.6371 42.1356V42.1365ZM70.2595 47.0877C65.8339 47.0877 62.4573 43.7685 62.4573 39.7293C62.4573 35.7181 65.8339 32.3989 70.2595 32.3989C74.6842 32.3989 78.0608 35.7181 78.0608 39.7293C78.0608 43.7685 74.6851 47.0877 70.2595 47.0877ZM70.2595 42.4127C71.8766 42.4127 72.9544 41.1955 72.9544 39.7565C72.9544 38.2911 71.8766 37.0739 70.2595 37.0739C68.6423 37.0739 67.5645 38.2911 67.5645 39.7565C67.5645 41.1955 68.6423 42.4127 70.2595 42.4127ZM53.1592 28.001V41.9699H61.6133V46.6729H52.4497C49.2163 46.6729 47.9115 45.0129 47.9115 42.3847V28.001H53.1592Z" fill="#B8B8B8"/>
</g>
<defs>
<clipPath id="clip0_122_1834">
<rect width="192" height="34" fill="white" transform="translate(1.65698 22)"/>
</clipPath>
</defs>
</svg>
